<svg id="Layer_1" data-name="Layer 1" xmlns="http://www.w3.org/2000/svg" viewBox="0 0 113.28 149.76"><defs><style>.cls-1,.cls-2,.cls-3{fill:#231f20;}.cls-2{font-size:45px;}.cls-2,.cls-3{font-family:MVBoli, MV Boli;}.cls-3{font-size:15px;}.cls-4,.cls-5,.cls-6{font-family:MyriadPro-Regular, Myriad Pro;}.cls-5{letter-spacing:-0.05em;}.cls-6{letter-spacing:-0.04em;}</style></defs><title>a tài</title><path class="cls-1" d="M79.26,52.78V67.51a51.13,51.13,0,0,1-38.64,29.2,119.32,119.32,0,0,1-1.48-73.34A51.17,51.17,0,0,1,79.26,52.78Z" transform="translate(-34.08 -23.23)"/><path class="cls-1" d="M147.36,57.72a118.62,118.62,0,0,1-6.61,39.17,51.18,51.18,0,0,1-39.86-29.38V52.78a51.16,51.16,0,0,1,41.38-29.55A118.62,118.62,0,0,1,147.36,57.72Z" transform="translate(-34.08 -23.23)"/><rect class="cls-1" x="50.08" y="29.12" width="13.12" height="15.11"/><text class="cls-2" transform="translate(9.24 114.76)">Fayo</text><text class="cls-3" transform="translate(2.59 145.29)">F<tspan class="cls-4" x="8.28" y="0">ASHION</tspan><tspan class="cls-5" x="58.43" y="0"> </tspan><tspan class="cls-6" x="60.92" y="0">Y</tspan><tspan class="cls-4" x="68.49" y="0">OUNG</tspan></text></svg>