<svg id="calendar_1_" data-name="calendar (1)" xmlns="http://www.w3.org/2000/svg" width="12.18" height="12.456" viewBox="0 0 12.18 12.456">
  <g id="Group_496" data-name="Group 496">
    <path id="Path_104" data-name="Path 104" d="M118.459,258.5a.259.259,0,0,0-.259-.259h-.905a.259.259,0,0,0-.259.259v.905a.259.259,0,0,0,.259.259h.905a.259.259,0,0,0,.259-.259V258.5Z" transform="translate(-114.152 -251.575)" fill="#0d47a1"/>
    <path id="Path_105" data-name="Path 105" d="M215.094,258.5a.259.259,0,0,0-.259-.259h-.905a.259.259,0,0,0-.259.259v.905a.259.259,0,0,0,.259.259h.905a.259.259,0,0,0,.259-.259Z" transform="translate(-208.292 -251.575)" fill="#0d47a1"/>
    <path id="Path_106" data-name="Path 106" d="M311.722,258.5a.259.259,0,0,0-.259-.259h-.905a.259.259,0,0,0-.259.259v.905a.259.259,0,0,0,.259.259h.905a.259.259,0,0,0,.259-.259Z" transform="translate(-302.425 -251.575)" fill="#0d47a1"/>
    <path id="Path_107" data-name="Path 107" d="M118.459,355.134a.259.259,0,0,0-.259-.259h-.905a.259.259,0,0,0-.259.259v.905a.259.259,0,0,0,.259.259h.905a.259.259,0,0,0,.259-.259v-.905Z" transform="translate(-114.152 -345.54)" fill="#0d47a1"/>
    <path id="Path_108" data-name="Path 108" d="M215.094,355.134a.259.259,0,0,0-.259-.259h-.905a.259.259,0,0,0-.259.259v.905a.259.259,0,0,0,.259.259h.905a.259.259,0,0,0,.259-.259Z" transform="translate(-208.292 -345.54)" fill="#0d47a1"/>
    <path id="Path_109" data-name="Path 109" d="M311.722,355.134a.259.259,0,0,0-.259-.259h-.905a.259.259,0,0,0-.259.259v.905a.259.259,0,0,0,.259.259h.905a.259.259,0,0,0,.259-.259v-.905Z" transform="translate(-302.425 -345.54)" fill="#0d47a1"/>
    <path id="Path_110" data-name="Path 110" d="M16.507,54.147V55.67a1.237,1.237,0,0,1-1.233,1.242H14.5a1.243,1.243,0,0,1-1.241-1.242V54.142H9.747V55.67a1.243,1.243,0,0,1-1.241,1.242H7.729A1.237,1.237,0,0,1,6.5,55.67V54.147a1.128,1.128,0,0,0-1.084,1.127V64.2A1.128,1.128,0,0,0,6.527,65.33h9.947A1.129,1.129,0,0,0,17.591,64.2V55.275A1.128,1.128,0,0,0,16.507,54.147Zm-.361,9.493a.485.485,0,0,1-.483.488H7.318a.485.485,0,0,1-.483-.488V59.032a.485.485,0,0,1,.483-.488h8.345a.485.485,0,0,1,.483.488V63.64Z" transform="translate(-5.411 -52.874)" fill="#0d47a1"/>
    <path id="Path_111" data-name="Path 111" d="M79.938,3.043h.706a.388.388,0,0,0,.388-.388V.388A.388.388,0,0,0,80.644,0h-.706a.388.388,0,0,0-.388.388V2.655A.388.388,0,0,0,79.938,3.043Z" transform="translate(-77.634 0)" fill="#0d47a1"/>
    <path id="Path_112" data-name="Path 112" d="M344.846,3.043h.706a.388.388,0,0,0,.388-.388V.388A.388.388,0,0,0,345.552,0h-.706a.388.388,0,0,0-.388.388V2.655A.388.388,0,0,0,344.846,3.043Z" transform="translate(-335.697 0)" fill="#0d47a1"/>
  </g>
</svg>
