<svg id="free-delivery" xmlns="http://www.w3.org/2000/svg" width="70.251" height="70.251" viewBox="0 0 70.251 70.251">
  <path id="Path_763" data-name="Path 763" d="M184.268,66.363l-1.314,1.016a4.478,4.478,0,0,1-1.246-2.1,3.47,3.47,0,0,1,.621-2.815,1.863,1.863,0,0,0,1.369.914,1.894,1.894,0,0,0-.386,1.531A3.1,3.1,0,0,0,184.268,66.363Zm0,0" transform="translate(-156.703 -53.891)" fill="#6770e6"/>
  <path id="Path_764" data-name="Path 764" d="M204.33,98.217l-1.509.656c-.338-.777-2.785-1.948-4.753-2.889-2.577-1.232-5.217-2.5-6.748-4.07l1.314-1.016c1.383,1.323,3.96,2.555,6.144,3.6C201.556,95.827,203.748,96.878,204.33,98.217Zm0,0" transform="translate(-165.069 -78.426)" fill="#6770e6"/>
  <path id="Path_765" data-name="Path 765" d="M204.851,64.872,203.71,66.06c-.192-.187-.469-.461-.812-.8-4.753-4.72-8.427-7.846-10.987-9.349a7.818,7.818,0,0,0-2.27-.977,2.55,2.55,0,0,0-.68-.063.832.832,0,0,0-.67.316c-.057.074-.113.146-.159.217a1.863,1.863,0,0,1-1.369-.914c.074-.11.153-.217.238-.324a2.487,2.487,0,0,1,1.863-.938,4.242,4.242,0,0,1,1.378.17,11.578,11.578,0,0,1,2.9,1.345c3.362,2.058,7.415,5.873,10.919,9.349C204.393,64.424,204.662,64.691,204.851,64.872Zm0,0" transform="translate(-161.136 -45.918)" fill="#6770e6"/>
  <path id="Path_766" data-name="Path 766" d="M64.418,235.273H22.434a3.028,3.028,0,0,1-3.028-3.028V199.328H64.418Zm0,0" transform="translate(-16.744 -171.979)" fill="#5861c7"/>
  <path id="Path_767" data-name="Path 767" d="M347.457,271.524h19.55a3.027,3.027,0,0,0,3.027-3.028v-8.727a3.028,3.028,0,0,0-.262-1.232l-6.859-15.4a3.029,3.029,0,0,0-2.766-1.8h-12.69v30.18Zm0,0" transform="translate(-299.783 -208.229)" fill="#d476e2"/>
  <path id="Path_768" data-name="Path 768" d="M382.567,261.8H371.258a1.544,1.544,0,0,0-1.544,1.543v10.989a1.544,1.544,0,0,0,1.544,1.544h17.578Zm0,0" transform="translate(-318.987 -225.883)" fill="#69ebfc"/>
  <path id="Path_769" data-name="Path 769" d="M482.35,393.176h1.758V387.82H482.35a2.678,2.678,0,0,0,0,5.355Zm0,0" transform="translate(-413.857 -334.608)" fill="#69ebfc"/>
  <path id="Path_770" data-name="Path 770" d="M21.168,393.176H19.41V387.82h1.758a2.678,2.678,0,0,1,0,5.355Zm0,0" transform="translate(-16.747 -334.608)" fill="#69ebfc"/>
  <path id="Path_771" data-name="Path 771" d="M79.62,417.558a6.957,6.957,0,1,1-6.957-6.956A6.957,6.957,0,0,1,79.62,417.558Zm0,0" transform="translate(-56.691 -354.263)" fill="#339"/>
  <path id="Path_772" data-name="Path 772" d="M97.445,438.75a3.586,3.586,0,1,1-3.586-3.586A3.586,3.586,0,0,1,97.445,438.75Zm0,0" transform="translate(-77.887 -375.456)" fill="#6770e6"/>
  <path id="Path_773" data-name="Path 773" d="M383.628,417.558a6.957,6.957,0,1,1-6.957-6.956A6.957,6.957,0,0,1,383.628,417.558Zm0,0" transform="translate(-318.987 -354.263)" fill="#339"/>
  <path id="Path_774" data-name="Path 774" d="M72.663,461.434a6.956,6.956,0,0,1-6.906-6.133,7.071,7.071,0,0,0-.05.823,6.957,6.957,0,0,0,13.913,0,7.074,7.074,0,0,0-.05-.823A6.956,6.956,0,0,1,72.663,461.434Zm0,0" transform="translate(-56.691 -392.83)" fill="#29297a"/>
  <path id="Path_775" data-name="Path 775" d="M376.671,461.434a6.956,6.956,0,0,1-6.906-6.133,7.081,7.081,0,0,0-.05.823,6.957,6.957,0,0,0,13.913,0,7.081,7.081,0,0,0-.05-.823A6.956,6.956,0,0,1,376.671,461.434Zm0,0" transform="translate(-318.987 -392.83)" fill="#29297a"/>
  <path id="Path_776" data-name="Path 776" d="M401.453,438.75a3.586,3.586,0,1,1-3.586-3.586A3.586,3.586,0,0,1,401.453,438.75Zm0,0" transform="translate(-340.182 -375.456)" fill="#6770e6"/>
  <path id="Path_777" data-name="Path 777" d="M48.191,134.961H2.146A2.146,2.146,0,0,0,0,137.108v4.539a2.146,2.146,0,0,0,2.146,2.146H48.191a2.146,2.146,0,0,0,2.146-2.146v-4.539A2.146,2.146,0,0,0,48.191,134.961Zm0,0" transform="translate(0 -116.443)" fill="#6770e6"/>
  <path id="Path_778" data-name="Path 778" d="M48.191,134.961H2.146A2.146,2.146,0,0,0,0,137.108v2.172a2.146,2.146,0,0,1,2.146-2.147H48.191a2.146,2.146,0,0,1,2.146,2.147v-2.172A2.146,2.146,0,0,0,48.191,134.961Zm0,0" transform="translate(0 -116.443)" fill="#8f95e6"/>
  <path id="Path_779" data-name="Path 779" d="M127.229,239.861H111a2.112,2.112,0,1,1,0-4.224h16.234a2.112,2.112,0,0,1,0,4.224Zm0,0" transform="translate(-93.943 -203.305)" fill="#339"/>
  <path id="Path_780" data-name="Path 780" d="M31.4,5.755,24.8.653A3.144,3.144,0,0,0,22.878,0H2.7A2.7,2.7,0,0,0,0,2.7v9.868a2.7,2.7,0,0,0,2.7,2.7H22.878a3.13,3.13,0,0,0,1.918-.656l1.455-1.125A4.478,4.478,0,0,1,25,11.386a3.47,3.47,0,0,1,.621-2.815,1.832,1.832,0,0,1-.252-.936A1.869,1.869,0,0,1,29.1,7.478a1.53,1.53,0,0,1,.008.157A1.87,1.87,0,0,1,27.244,9.5a1.549,1.549,0,0,1-.25-.019,1.894,1.894,0,0,0-.386,1.531,3.1,3.1,0,0,0,.957,1.457l3.208-2.48.623-.48a2.367,2.367,0,0,0,0-3.757Zm0,0" transform="translate(0 0)" fill="#ff8354"/>
  <g id="Group_56" data-name="Group 56" transform="translate(3.257 4.52)">
    <path id="Path_781" data-name="Path 781" d="M24.173,32.945h2.956a.557.557,0,1,1,0,1.114H24.912v1.513h1.939a.557.557,0,1,1,0,1.114H24.912v1.9a.587.587,0,1,1-1.174,0v-5.2A.435.435,0,0,1,24.173,32.945Zm0,0" transform="translate(-23.738 -32.945)" fill="#ffefe4"/>
    <path id="Path_782" data-name="Path 782" d="M59.1,33.381a.436.436,0,0,1,.436-.436h1.834a2.333,2.333,0,0,1,.852.148,1.965,1.965,0,0,1,.657.408,1.789,1.789,0,0,1,.422.622,2.057,2.057,0,0,1,.148.787,1.62,1.62,0,0,1-.1.587,1.762,1.762,0,0,1-.287.5,2.138,2.138,0,0,1-.426.392,2.2,2.2,0,0,1-.513.265l-.009.061,1.08,1.547a.572.572,0,1,1-.94.651l-1.428-2.076h-.548v1.752a.587.587,0,1,1-1.174,0v-5.2Zm2.262,2.374a.917.917,0,0,0,.656-.244.814.814,0,0,0,.257-.618.943.943,0,0,0-.057-.321.8.8,0,0,0-.169-.279.841.841,0,0,0-.282-.2.954.954,0,0,0-.388-.073h-1.1v1.731Zm0,0" transform="translate(-54.249 -32.945)" fill="#ffefe4"/>
    <path id="Path_783" data-name="Path 783" d="M99.577,34.059V35.5h1.939a.557.557,0,0,1,0,1.114H99.577V38.06h2.217a.557.557,0,0,1,0,1.114H98.838a.436.436,0,0,1-.436-.436V33.381a.436.436,0,0,1,.436-.436h2.956a.557.557,0,0,1,0,1.114H99.577Zm0,0" transform="translate(-88.158 -32.945)" fill="#ffefe4"/>
    <path id="Path_784" data-name="Path 784" d="M136.213,34.059V35.5h1.939a.557.557,0,0,1,0,1.114h-1.939V38.06h2.217a.557.557,0,0,1,0,1.114h-2.955a.436.436,0,0,1-.436-.436V33.381a.436.436,0,0,1,.436-.436h2.956a.557.557,0,0,1,0,1.114h-2.217Zm0,0" transform="translate(-119.768 -32.945)" fill="#ffefe4"/>
  </g>
  <path id="Path_785" data-name="Path 785" d="M2.7,1.372H22.878a3.144,3.144,0,0,1,1.918.653l6.6,5.1a2.359,2.359,0,0,1,.82,1.194,2.374,2.374,0,0,0-.82-2.566L24.8.653A3.144,3.144,0,0,0,22.878,0H2.7A2.7,2.7,0,0,0,0,2.7V4.072A2.7,2.7,0,0,1,2.7,1.372Zm0,0" transform="translate(0 0)" fill="#ffac8c"/>
</svg>
