<svg xmlns="http://www.w3.org/2000/svg" width="64.075" height="75.804" viewBox="0 0 64.075 75.804">
  <g id="medal" transform="translate(-39.592)">
    <path id="Path_755" data-name="Path 755" d="M56.146,221.248,39.592,252.437l15.033-1.389L61.9,264.278l16.554-31.189Z" transform="translate(0 -188.476)" fill="#e95454"/>
    <g id="Group_54" data-name="Group 54" transform="translate(53.268 32.772)">
      <path id="Path_756" data-name="Path 756" d="M136.695,284.313a2.114,2.114,0,0,0-.993-2.707l-.953-.507a2.037,2.037,0,0,1,1.96-3.572l2.692,1.429a1.7,1.7,0,0,0,2.3-.716l.066-.128a1.607,1.607,0,0,0-.619-2.266l-8.053-4.273a2.12,2.12,0,0,1-1-2.709,2.042,2.042,0,0,1,2.806-.939l7.47,3.965a1.718,1.718,0,0,0,2.315-.711l.043-.109.012-.024a1.789,1.789,0,0,0-.737-2.434l-4.19-2.223a2.12,2.12,0,0,1-1-2.721,2.051,2.051,0,0,1,2.806-.938l4.629,2.458a1.728,1.728,0,0,0,2.346-.8.11.11,0,0,0,.012-.024.112.112,0,0,0,.012-.024,1.726,1.726,0,0,0-.656-2.389l-4.994-2.65a2.115,2.115,0,0,1-.993-2.7,2.042,2.042,0,0,1,2.806-.939l12.319,6.539-16.554,31.189-4.562-8.293A1.939,1.939,0,0,0,136.695,284.313Z" transform="translate(-131.92 -250.365)" fill="#ed6362"/>
      <path id="Path_757" data-name="Path 757" d="M232.109,221.248l16.554,31.189-15.033-1.389-7.276,13.229L209.8,233.088Z" transform="translate(-198.264 -221.248)" fill="#ed6362"/>
    </g>
    <path id="Path_758" data-name="Path 758" d="M230.226,284.326a2.114,2.114,0,0,1,.993-2.706l.953-.507a2.037,2.037,0,0,0-1.96-3.572l-2.692,1.429a1.7,1.7,0,0,1-2.3-.716l-.066-.128a1.607,1.607,0,0,1,.619-2.266l8.056-4.275a2.12,2.12,0,0,0,1-2.709,2.042,2.042,0,0,0-2.806-.938l-7.47,3.965a1.719,1.719,0,0,1-2.315-.711l-.043-.109-.012-.024a1.789,1.789,0,0,1,.737-2.434l4.19-2.223a2.12,2.12,0,0,0,1-2.721,2.051,2.051,0,0,0-2.806-.939l-4.633,2.462a1.728,1.728,0,0,1-2.346-.8.109.109,0,0,1-.012-.024.11.11,0,0,1-.012-.024,1.726,1.726,0,0,1,.656-2.389l4.994-2.65a2.115,2.115,0,0,0,.993-2.7,2.042,2.042,0,0,0-2.806-.939l-12.319,6.539L226.37,293.41l4.562-8.293A1.973,1.973,0,0,1,230.226,284.326Z" transform="translate(-145.01 -217.606)" fill="#e95454"/>
    <circle id="Ellipse_111" data-name="Ellipse 111" cx="27.66" cy="27.66" r="27.66" transform="translate(43.969 0)" fill="#ffcc5b"/>
    <path id="Path_759" data-name="Path 759" d="M101.019,36.427H83.491a2.491,2.491,0,0,1-2.481-2.481l.019-.171v-.038a2.591,2.591,0,0,1,2.6-2.614H95.772a3.073,3.073,0,0,0,3.126-2.8,2.97,2.97,0,0,0-2.955-3.107H83.074A2.5,2.5,0,0,1,80.611,22.6v-.076a2.5,2.5,0,0,1,2.462-2.614H96.54a3.066,3.066,0,0,0,3.107-2.785,2.959,2.959,0,0,0-2.955-3.107H86.83a27.657,27.657,0,0,0,0,51.161H99.353a3.066,3.066,0,0,0,3.107-2.785,2.957,2.957,0,0,0-2.955-3.1l-14.244,0a2.947,2.947,0,0,1-2.944-3.107,3.061,3.061,0,0,1,3.109-2.789h5.522a2.951,2.951,0,0,0-.085-5.9H82.493a2.461,2.461,0,0,1-2.462-2.481V44.8a2.331,2.331,0,0,1,2.33-2.481h18.488a3.071,3.071,0,0,0,3.126-2.785A2.96,2.96,0,0,0,101.019,36.427Z" transform="translate(-25.638 -11.94)" fill="#fdbc4b"/>
    <path id="Path_760" data-name="Path 760" d="M142.328,92.926a19.743,19.743,0,1,1,19.744-19.742A19.767,19.767,0,0,1,142.328,92.926Z" transform="translate(-70.699 -45.524)" fill="#ffdb70"/>
    <path id="Path_761" data-name="Path 761" d="M251.268,73.511a19.754,19.754,0,0,0-18.612-19.688h-1.839a2.34,2.34,0,0,0-2.37,2.124,2.258,2.258,0,0,0,2.254,2.37l10.864,0a2.247,2.247,0,0,1,2.244,2.37,2.335,2.335,0,0,1-2.372,2.128h-4.212a2.251,2.251,0,0,0,.064,4.5h6.385a1.877,1.877,0,0,1,1.877,1.891v.156a1.776,1.776,0,0,1-1.777,1.891h-14.1a2.344,2.344,0,0,0-2.384,2.123,2.258,2.258,0,0,0,2.254,2.37h13.367a1.9,1.9,0,0,1,1.891,1.891l-.014.13V77.8a1.976,1.976,0,0,1-1.979,1.993h-9.267a2.345,2.345,0,0,0-2.384,2.138,2.267,2.267,0,0,0,2.254,2.37h9.814A1.91,1.91,0,0,1,245.1,86.3v.057a1.91,1.91,0,0,1-1.877,1.993H232.958a2.34,2.34,0,0,0-2.37,2.124,2.257,2.257,0,0,0,2.254,2.37h2.709A19.777,19.777,0,0,0,251.268,73.511Z" transform="translate(-159.894 -45.851)" fill="#fff" opacity="0.2"/>
    <path id="Path_762" data-name="Path 762" d="M183.045,99.626h-9.6l-2.97-9.134a1.275,1.275,0,0,0-2.424,0l-2.967,9.134h-9.6a1.274,1.274,0,0,0-.749,2.306l7.769,5.645-2.967,9.134a1.275,1.275,0,0,0,1.962,1.424l7.769-5.645,7.769,5.645a1.275,1.275,0,0,0,1.962-1.424l-2.967-9.134,7.769-5.645A1.275,1.275,0,0,0,183.045,99.626Z" transform="translate(-97.632 -76.338)" fill="#ec9922"/>
  </g>
</svg>
