<svg xmlns="http://www.w3.org/2000/svg" width="55.586" height="73.272" viewBox="0 0 55.586 73.272">
  <g id="operator" transform="translate(-61.793)">
    <path id="Path_796" data-name="Path 796" d="M136.308,45.161a2.556,2.556,0,0,1-1.5,2.329c-5.728,2.657-13.69,4.306-22.5,4.306s-16.773-1.649-22.5-4.306a2.557,2.557,0,0,1-1.5-2.329C88.493,21.046,92.9,0,112.311,0S136.129,21.046,136.308,45.161Z" transform="translate(-22.725)" fill="#5a4146"/>
    <path id="Path_797" data-name="Path 797" d="M98.429,306.25v-6.112H80.743v6.112a3.79,3.79,0,0,1-2.592,3.6l-12.039,4.013a6.317,6.317,0,0,0-4.319,5.992v8.08a2.526,2.526,0,0,0,2.527,2.527h50.533a2.526,2.526,0,0,0,2.527-2.527v-8.08a6.317,6.317,0,0,0-4.319-5.992l-12.039-4.013A3.79,3.79,0,0,1,98.429,306.25Z" transform="translate(0 -257.185)" fill="#e6af78"/>
    <path id="Path_798" data-name="Path 798" d="M180.359,306.25a3.782,3.782,0,0,1-2.313,3.477c14.156,2.413,20-7.694,20-7.694l0,0v-1.892H180.359Z" transform="translate(-99.616 -257.185)" fill="#d29b6e"/>
    <path id="Path_799" data-name="Path 799" d="M113.061,376.375l-9.837-3.279c-4.682,6.352-10.147,9.9-13.636,11.035C86.1,383,80.633,379.448,75.95,373.1l-9.837,3.279a6.317,6.317,0,0,0-4.319,5.992v8.08a2.527,2.527,0,0,0,2.527,2.527h50.533a2.527,2.527,0,0,0,2.527-2.527v-8.08A6.317,6.317,0,0,0,113.061,376.375Z" transform="translate(-0.001 -319.702)" fill="#e4eaf6"/>
    <g id="Group_57" data-name="Group 57" transform="translate(61.793 53.393)">
      <path id="Path_800" data-name="Path 800" d="M70.419,415.557l-7.008-7.008a6.3,6.3,0,0,0-1.618,4.2v8.08a2.527,2.527,0,0,0,2.527,2.527H71.9V419.13A5.053,5.053,0,0,0,70.419,415.557Z" transform="translate(-61.793 -403.475)" fill="#d7deed"/>
      <path id="Path_801" data-name="Path 801" d="M381.066,415.557l7.008-7.008a6.3,6.3,0,0,1,1.618,4.2v8.08a2.527,2.527,0,0,1-2.527,2.527h-7.58V419.13A5.053,5.053,0,0,1,381.066,415.557Z" transform="translate(-334.107 -403.475)" fill="#d7deed"/>
      <path id="Path_802" data-name="Path 802" d="M143.792,374.593c5.074,6.885,11.018,10.682,14.889,11.94l.781.253.781-.253c3.871-1.258,9.815-5.055,14.889-11.94l.453-.67-2.487-.829c-4.682,6.352-10.147,9.9-13.636,11.035-3.489-1.134-8.954-4.683-13.636-11.035l-2.487.829Z" transform="translate(-131.669 -373.094)" fill="#d7deed"/>
    </g>
    <path id="Path_803" data-name="Path 803" d="M118.76,185.441l-1.467,0a2.527,2.527,0,0,0-2.535,2.527v4.994a2.527,2.527,0,0,0,2.577,2.526l2.177-.043Z" transform="translate(-45.385 -158.898)" fill="#707487"/>
    <path id="Path_804" data-name="Path 804" d="M132.422,185.436h-.008v10.042c.017,0,.033,0,.05,0l2.177-.043-.753-10Z" transform="translate(-60.514 -158.898)" fill="#65687a"/>
    <path id="Path_805" data-name="Path 805" d="M364.773,185.441l1.467,0a2.527,2.527,0,0,1,2.535,2.527v4.994a2.527,2.527,0,0,1-2.577,2.526l-2.177-.043Z" transform="translate(-258.975 -158.898)" fill="#707487"/>
    <path id="Path_806" data-name="Path 806" d="M366.239,185.436h.008v10.042c-.017,0-.033,0-.05,0l-2.177-.043.753-10Z" transform="translate(-258.975 -158.898)" fill="#65687a"/>
    <path id="Path_807" data-name="Path 807" d="M141.241,105.931v5.447q0,3.4.26,6.782l.728,9.464a7.58,7.58,0,0,0,3.211,5.628l7.629,5.34a8.009,8.009,0,0,0,4.593,1.448h0a8.009,8.009,0,0,0,4.593-1.448l7.629-5.34a7.579,7.579,0,0,0,3.211-5.628l.728-9.464q.26-3.385.26-6.782v-5.447Z" transform="translate(-68.078 -90.771)" fill="#f0c087"/>
    <path id="Path_808" data-name="Path 808" d="M173.993,105.931H141.241v5.447c0,.7.024,1.4.04,2.105h0q.03,1.265.1,2.529h0c.038.716.069,1.432.124,2.147l.728,9.464a7.58,7.58,0,0,0,3.211,5.628l7.629,5.34a8.01,8.01,0,0,0,4.593,1.448c-2.027,0-4.255-3.49-5.653-6.136a12.579,12.579,0,0,1-1.449-5.647l-.213-11.438a1.84,1.84,0,0,1,1.538-1.839,67.5,67.5,0,0,0,15.227-4.454,12.354,12.354,0,0,0,6.063,5.376l.4.136h.376q.067-1.263.1-2.527Z" transform="translate(-68.078 -90.771)" fill="#e6af78"/>
    <path id="Path_809" data-name="Path 809" d="M132.414,97.1v8.843c14.967,0,26.361-5.211,28.269-6.362,2.051,5.1,5.746,6.362,5.746,6.362h1.358V97.1Z" transform="translate(-60.514 -83.207)" fill="#5a4146"/>
    <path id="Path_810" data-name="Path 810" d="M291.6,255.278l-2.168-.043c-.965,1.752-3.854,4.622-12.468,4.622v2.527c11.512,0,14.466-4.906,15.216-7.166A2.526,2.526,0,0,1,291.6,255.278Z" transform="translate(-184.378 -218.693)" fill="#464655"/>
    <path id="Path_811" data-name="Path 811" d="M250.33,286.274h-1.263a1.9,1.9,0,0,1-1.895-1.895h0a1.9,1.9,0,0,1,1.895-1.895h1.263a1.9,1.9,0,0,1,1.895,1.895h0A1.9,1.9,0,0,1,250.33,286.274Z" transform="translate(-158.849 -242.058)" fill="#5b5d6e"/>
  </g>
</svg>
